# xmcd
#
# Track frame offsets:
#	150
#	17992
#	36667
#	57742
#	70942
#	90442
#	104842
#	121342
#	133342
#	148717
#	163942
#	180067
#	196642
#
# Disc length: 2862 seconds
# Revision: 0
# Processed by: cddbd v1.5.2PL0 Copyright (c) Steve Scherf et al.
# Submitted via: dBpowerAMP V12.0
#
DISCID=c20b2c0d
DTITLE=Phil Manning - Checkmate Move
DYEAR=2010
DGENRE=Blues
TTITLE0=If You Wanna Be My Queen
TTITLE1=Checkmate Move
TTITLE2=Pigeons, Trucks And Drunks
TTITLE3=I'm The Man For You
TTITLE4=Someone Else's Name
TTITLE5=Ask Me If I'm Alright
TTITLE6=One Bin Tonight
TTITLE7=Who Do?
TTITLE8=Adelene
TTITLE9=The Way She Loves (Is Nurder)
TTITLE10=Walls Fall Down
TTITLE11=Ants In My Shoes
TTITLE12=Labour Of Love
EXTD=
EXTT0=
EXTT1=
EXTT2=
EXTT3=
EXTT4=
EXTT5=
EXTT6=
EXTT7=
EXTT8=
EXTT9=
EXTT10=
EXTT11=
EXTT12=
PLAYORDER=
